<svg xmlns="http://www.w3.org/2000/svg" width="600" height="800" viewBox="0 0 600 800" fill="none">
  <rect width="600" height="800" fill="#0D47A1"/>
  <rect x="30" y="30" width="540" height="740" rx="16" fill="#FFFFFF"/>
  <rect x="60" y="60" width="480" height="220" rx="12" fill="#C62828"/>
  <text x="80" y="120" fill="#FFFFFF" font-family="Arial, sans-serif" font-size="26" font-weight="700">PLASTIC SANDESH</text>
  <text x="80" y="165" fill="#FFE4E4" font-family="Arial, sans-serif" font-size="18">Industry Outlook 2026</text>
  <circle cx="170" cy="410" r="95" fill="#ECEFF4"/>
  <path d="M170 350C149 350 132 367 132 388C132 409 149 426 170 426C191 426 208 409 208 388C208 367 191 350 170 350Z" fill="#B0BEC5"/>
  <path d="M170 440C124 440 86 478 86 524H254C254 478 216 440 170 440Z" fill="#B0BEC5"/>
  <rect x="300" y="342" width="210" height="18" rx="9" fill="#0D47A1" opacity="0.9"/>
  <rect x="300" y="374" width="190" height="14" rx="7" fill="#546E7A" opacity="0.7"/>
  <rect x="300" y="403" width="170" height="14" rx="7" fill="#546E7A" opacity="0.7"/>
  <rect x="60" y="600" width="480" height="120" rx="10" fill="#F5F7FA"/>
  <text x="80" y="650" fill="#0D47A1" font-family="Arial, sans-serif" font-size="20" font-weight="700">Policy, Exports, and Recycling Growth</text>
  <text x="80" y="685" fill="#607D8B" font-family="Arial, sans-serif" font-size="16">Special Feature: Gujarat Manufacturing Clusters</text>
</svg>
